<svg width="220" height="19" viewBox="0 0 220 19" fill="none" xmlns="http://www.w3.org/2000/svg">
<g clip-path="url(#clip0_61_21)">
<path d="M27.5257 8.56985C27.3543 4.12506 25.2747 0.46868 22.6639 0.040198C20.9242 -0.245457 19.4902 0.97429 17.982 3.15669C15.871 6.20749 13.9428 8.0014 11.172 8.0014H10.7835C8.11546 8.0014 7.35562 6.78737 6.15301 5.14485C6.01875 4.96203 5.88164 4.78493 5.74166 4.61353C5.35317 4.06508 4.89327 3.6623 4.39052 3.43949C4.34196 3.41664 4.29054 3.39379 4.23912 3.37379C4.21055 3.36522 4.18485 3.35665 4.15628 3.34808C4.06201 3.31666 3.96489 3.28809 3.86491 3.27381C3.85063 3.27381 3.8392 3.27381 3.82492 3.2681C3.74494 3.25667 3.66495 3.24239 3.58211 3.24239C3.57069 3.24239 3.55926 3.24239 3.55069 3.24525C3.53355 3.24525 3.51927 3.24239 3.50213 3.24239C1.56825 3.24239 0 5.90184 0 9.18687C0 12.4719 1.50255 15.0142 3.38215 15.1228C3.40501 15.1228 3.425 15.1285 3.44786 15.1285C3.46499 15.1285 3.48499 15.1342 3.50213 15.1342C3.51927 15.1342 3.53641 15.1314 3.55069 15.1314C3.77065 15.1314 3.98489 15.0914 4.19342 15.0199C4.20198 15.0199 4.21055 15.0142 4.21627 15.0114C4.30482 14.98 4.39052 14.9428 4.47621 14.8971C4.75901 14.76 5.02467 14.56 5.27033 14.3144C5.57884 14.0173 5.86735 13.6602 6.13016 13.2689C7.4156 11.3721 8.36398 10.3752 10.7835 10.3752H11.172C13.9942 10.3752 15.9281 12.2005 18.0562 15.3456C19.4617 17.4223 20.65 18.3792 22.124 18.3792C25.2348 18.3792 27.7314 13.9287 27.5257 8.57271V8.56985Z" fill="url(#paint0_linear_61_21)"/>
<path d="M49.6868 8.0269H42.2626V1.8739H39.0118V16.4966H42.2626V10.8006H49.6868V16.4966H52.9575V1.8739H49.6868V8.0269Z" fill="#180B2B"/>
<path d="M64.4894 9.54945L60.7759 1.8739H57.3452L62.8698 12.2974V16.4966H66.0948V11.9632L71.6565 1.8739H68.2087L64.4894 9.54945Z" fill="#180B2B"/>
<path d="M81.7144 1.8739H76.0242V16.4966H79.2721V12.3003H81.7144C86.3877 12.3003 88.2959 10.7949 88.2959 7.10995C88.2959 3.425 86.3877 1.8739 81.7144 1.8739ZM81.9515 9.54945H79.2721V4.62475H81.9515C83.494 4.62475 85.068 4.91898 85.068 7.10995C85.068 9.30093 83.4969 9.54945 81.9515 9.54945Z" fill="#180B2B"/>
<path d="M92.8578 16.4966H104.347V13.7457H96.1257V10.4521H103.258V7.90122H96.1257V4.62475H104.347V1.8739H92.8578V16.4966Z" fill="#180B2B"/>
<path d="M122.395 6.41867C122.395 3.25647 120.324 1.8739 115.876 1.8739H109.469V16.4966H112.739V11.2977H117.024L119.341 16.4966H122.569L119.992 10.6835C121.937 9.54945 122.397 7.86408 122.397 6.41867H122.395ZM115.876 8.57251H112.739V4.62475H115.876C117.418 4.62475 119.164 4.62475 119.164 6.6072C119.164 8.58964 117.493 8.57251 115.876 8.57251Z" fill="#180B2B"/>
<path d="M138.834 1.8739H135.586V14.8712C135.586 15.951 136.146 16.4966 137.254 16.4966H146.204V13.7257H138.831V1.8739H138.834Z" fill="#180B2B"/>
<path d="M174.238 9.17524C174.238 4.63047 171.159 1.57396 166.568 1.57396C161.978 1.57396 158.855 4.63047 158.855 9.17524C158.855 13.72 161.798 16.6423 166.217 16.7937C166.334 16.7965 166.451 16.7994 166.568 16.7994C166.774 16.7994 166.965 16.7994 167.151 16.7937H175.215V13.9114H171.993C173.241 12.9373 174.235 11.4662 174.235 9.17524H174.238ZM167.808 13.7914C167.534 13.8543 167.239 13.8943 166.931 13.9114H166.217C163.646 13.7771 162.235 12.1061 162.235 9.17524C162.235 6.24442 163.774 4.45336 166.568 4.45336C169.362 4.45336 170.882 6.13015 170.882 9.17524C170.882 11.7461 169.802 13.3458 167.808 13.7914Z" fill="#180B2B"/>
<path d="M189.126 9.26379C189.126 11.809 189.126 14.0085 185.553 14.0085C181.979 14.0085 182.022 11.9147 182.022 9.26379V1.8739H178.774V11.1548C178.774 15.8024 182.459 16.7794 185.55 16.7794C188.641 16.7794 192.368 15.8024 192.368 11.1548V1.8739H189.121V9.26379H189.126Z" fill="#180B2B"/>
<path d="M211.81 1.8739H206.294V16.4966H211.81C215.624 16.4966 220 15.6653 220 9.17524C220 2.68516 215.624 1.8739 211.81 1.8739ZM211.81 13.7229H209.542V4.62475H211.81C214.238 4.62475 216.752 4.62475 216.752 9.17524C216.752 13.7257 214.353 13.7257 211.81 13.7257V13.7229Z" fill="#180B2B"/>
<path d="M153.779 1.8739H150.637V16.4966H153.779V1.8739Z" fill="#180B2B"/>
<path d="M200.815 1.8739H197.673V16.4966H200.815V1.8739Z" fill="#180B2B"/>
</g>
<defs>
<linearGradient id="paint0_linear_61_21" x1="30.0595" y1="6.11322" x2="-3.0965" y2="15.1799" gradientUnits="userSpaceOnUse">
<stop stop-color="#31E4FA"/>
<stop offset="0.5" stop-color="#4877FF"/>
<stop offset="1" stop-color="#D775FF"/>
</linearGradient>
<clipPath id="clip0_61_21">
<rect width="220" height="18.3762" fill="white"/>
</clipPath>
</defs>
</svg>
