<svg width="220" height="19" viewBox="0 0 220 19" fill="none" xmlns="http://www.w3.org/2000/svg">
<path d="M27.5257 8.56963C27.3543 4.12483 25.2747 0.468452 22.6639 0.0399691C20.9242 -0.245686 19.4902 0.974061 17.982 3.15646C15.871 6.20726 13.9428 8.00117 11.172 8.00117H10.7835C8.11546 8.00117 7.35561 6.78714 6.15301 5.14462C6.01875 4.9618 5.88164 4.7847 5.74166 4.6133C5.35317 4.06485 4.89327 3.66207 4.39052 3.43926C4.34195 3.41641 4.29054 3.39356 4.23912 3.37356C4.21055 3.36499 4.18484 3.35642 4.15628 3.34785C4.06201 3.31643 3.96489 3.28787 3.86491 3.27358C3.85063 3.27358 3.8392 3.27358 3.82492 3.26787C3.74494 3.25644 3.66495 3.24216 3.58211 3.24216C3.57069 3.24216 3.55926 3.24216 3.55069 3.24502C3.53355 3.24502 3.51927 3.24216 3.50213 3.24216C1.56825 3.24216 0 5.90161 0 9.18664C0 12.4717 1.50255 15.014 3.38215 15.1225C3.40501 15.1225 3.425 15.1283 3.44785 15.1283C3.46499 15.1283 3.48499 15.134 3.50213 15.134C3.51927 15.134 3.53641 15.1311 3.55069 15.1311C3.77065 15.1311 3.98489 15.0911 4.19341 15.0197C4.20198 15.0197 4.21055 15.014 4.21627 15.0111C4.30482 14.9797 4.39052 14.9426 4.47621 14.8969C4.75901 14.7598 5.02467 14.5598 5.27033 14.3141C5.57884 14.0171 5.86735 13.66 6.13015 13.2686C7.4156 11.3719 8.36398 10.375 10.7835 10.375H11.172C13.9942 10.375 15.9281 12.2003 18.0562 15.3454C19.4617 17.4221 20.65 18.379 22.124 18.379C25.2348 18.379 27.7314 13.9285 27.5257 8.57248V8.56963Z" fill="url(#paint0_linear_1_214)"/>
<path d="M49.6868 8.02685H42.2627V1.87384H39.0119V16.4965H42.2627V10.8006H49.6868V16.4965H52.9576V1.87384H49.6868V8.02685Z" fill="white"/>
<path d="M64.4895 9.54939L60.776 1.87384H57.3452L62.8698 12.2974V16.4965H66.0949V11.9632L71.6566 1.87384H68.2087L64.4895 9.54939Z" fill="white"/>
<path d="M81.7144 1.87384H76.0242V16.4965H79.2721V12.3002H81.7144C86.3878 12.3002 88.2959 10.7948 88.2959 7.1099C88.2959 3.42495 86.3878 1.87384 81.7144 1.87384V1.87384ZM81.9515 9.54939H79.2721V4.6247H81.9515C83.4941 4.6247 85.068 4.91892 85.068 7.1099C85.068 9.30087 83.4969 9.54939 81.9515 9.54939Z" fill="white"/>
<path d="M92.8578 16.4965H104.347V13.7457H96.1257V10.4521H103.259V7.90116H96.1257V4.6247H104.347V1.87384H92.8578V16.4965Z" fill="white"/>
<path d="M122.395 6.41861C122.395 3.25641 120.324 1.87384 115.876 1.87384H109.469V16.4965H112.739V11.2976H117.024L119.341 16.4965H122.569L119.992 10.6834C121.938 9.54939 122.397 7.86402 122.397 6.41861H122.395ZM115.876 8.57245H112.739V4.6247H115.876C117.418 4.6247 119.164 4.6247 119.164 6.60714C119.164 8.58959 117.493 8.57245 115.876 8.57245Z" fill="white"/>
<path d="M138.834 1.87384H135.586V14.8711C135.586 15.9509 136.146 16.4965 137.254 16.4965H146.204V13.7257H138.831V1.87384H138.834Z" fill="white"/>
<path d="M174.238 9.17519C174.238 4.63042 171.159 1.57391 166.568 1.57391C161.978 1.57391 158.856 4.63042 158.856 9.17519C158.856 13.72 161.798 16.6422 166.217 16.7936C166.334 16.7965 166.451 16.7993 166.568 16.7993C166.774 16.7993 166.965 16.7993 167.151 16.7936H175.215V13.9114H171.993C173.241 12.9373 174.235 11.4661 174.235 9.17519H174.238ZM167.808 13.7914C167.534 13.8542 167.24 13.8942 166.931 13.9114H166.217C163.646 13.7771 162.235 12.106 162.235 9.17519C162.235 6.24437 163.775 4.45332 166.568 4.45332C169.362 4.45332 170.882 6.13011 170.882 9.17519C170.882 11.7461 169.802 13.3458 167.808 13.7914V13.7914Z" fill="white"/>
<path d="M189.126 9.26373C189.126 11.8089 189.126 14.0085 185.553 14.0085C181.979 14.0085 182.022 11.9146 182.022 9.26373V1.87384H178.774V11.1548C178.774 15.8024 182.459 16.7793 185.55 16.7793C188.641 16.7793 192.369 15.8024 192.369 11.1548V1.87384H189.121V9.26373H189.126Z" fill="white"/>
<path d="M211.81 1.87384H206.294V16.4965H211.81C215.624 16.4965 220 15.6653 220 9.17518C220 2.6851 215.624 1.87384 211.81 1.87384V1.87384ZM211.81 13.7228H209.542V4.6247H211.81C214.238 4.6247 216.752 4.6247 216.752 9.17518C216.752 13.7257 214.353 13.7257 211.81 13.7257V13.7228Z" fill="white"/>
<path d="M153.779 1.87384H150.637V16.4965H153.779V1.87384Z" fill="white"/>
<path d="M200.815 1.87384H197.673V16.4965H200.815V1.87384Z" fill="white"/>
<defs>
<linearGradient id="paint0_linear_1_214" x1="30.0595" y1="6.11299" x2="-3.0965" y2="15.1797" gradientUnits="userSpaceOnUse">
<stop stop-color="#31E4FA"/>
<stop offset="0.5" stop-color="#4877FF"/>
<stop offset="1" stop-color="#D775FF"/>
</linearGradient>
</defs>
</svg>
